<?xml version="1.0" encoding="UTF-8"?>
<!-- Created with Inkscape (http://www.inkscape.org/) -->
<svg xmlns="http://www.w3.org/2000/svg" viewBox="0 0 730.91 781.56"><defs><style>.cls-1{fill:#532a18;}.cls-2{fill:#f7e2c5;}.cls-3{fill:#feffff;}.cls-4{fill:#f6fcfc;}.cls-5{fill:#ad593d;}.cls-6{fill:#fe5000;}.cls-7{fill:#f0950c;}.cls-8{fill:#fefaf7;}.cls-9{fill:#502d19;}</style></defs><g id="Camada_2" data-name="Camada 2"><g id="Layer_2" data-name="Layer 2"><path class="cls-1" d="M530.54,580.43s21.31-3.12,59.33-25.71,43.35-38,59.33-38,22.47,37.77,8.75,74.51-33.3,54.12-33.3,54.12,14,2.7,14,15.43-31.6,16.9-31.6,16.9,6.37,13.72-2.45,19.1-26.45-1.71-26.45-1.71-2.71,6.92-9.06,7.59-14.2-3.67-14.2-3.67Z"/><path class="cls-2" d="M642,598.81c-12.34,25.14-34.45,43.38-33.8,48.48,1.1,8.64,18.31,8.09,17.88,11.76s-6.74,3.92-18.5,6.36-15.54,2.83-14.81,9.31a19.19,19.19,0,0,0,5.27,10.78,25.33,25.33,0,0,1-9.81,0c-4.89-1.1-11.87-3.67-15.91-2.94s-5.88,7.47-5.88,7.47l-9.67.86L552.59,674l-15-60.23L532.19,592s27.07-5,66.75-30,42.36-33.79,47.51-33.79a1,1,0,0,1,.61.19c.74.41,1.46,1.54,2.12,3.28C653.09,541.91,654.89,572.58,642,598.81Z"/><path class="cls-2" d="M642,598.81c-12.34,25.14-34.45,43.38-33.8,48.48,1.1,8.64,18.31,8.09,17.88,11.76s-6.74,3.92-18.5,6.36-15.54,2.83-14.81,9.31a19.19,19.19,0,0,0,5.27,10.78,25.33,25.33,0,0,1-9.81,0c-4.89-1.1-11.87-3.67-15.91-2.94s-5.88,7.47-5.88,7.47l-9.67.86L552.59,674c8.57-5.19,16.84-9.48,23.5-9.48,0,0-2.39-16.07,9.74-26.91,0,0,38.33-32.15,50.08-64a199.35,199.35,0,0,0,10.24-38c.43-2.79.72-5.18.91-7.11.74.41,1.46,1.54,2.12,3.28C653.09,541.91,654.89,572.58,642,598.81Z"/><path class="cls-3" d="M649.18,531.74c-1,1.26-2,2.53-3,3.83a271.84,271.84,0,0,1-35.46,36.29,238,238,0,0,1-73.09,41.86L532.19,592s27.07-5,66.75-30,42.36-33.79,47.51-33.79a1,1,0,0,1,.61.19C647.8,528.87,648.52,530,649.18,531.74Z"/><path class="cls-1" d="M730.91,205.71c0,39.9-38.91,76.67-66.83,76.67-28.17,0-39.43-59.51-39.43-59.51-7.69-16.45-18.8-29.24-35.33-36.25,15.16,54.76,10.44,95.48-15.12,121.47,0,0,5.14,18.86,5.14,31.84s-8.08,41-19.1,41c-6.49,0-7.6-8.32-7.6-8.32-13.56,29.65-35.76,49.77-66.12,60.86l-4.47,8.32s28.84,27.68,28.84,42.92c0,8.27-6.06,9.37-6.06,9.37s30.85,42.8,30.85,61.9c0,9.55-6.06,12.13-6.06,12.13s26.7,45.86,26.7,59.33-5.2,17.63-5.2,17.63,12.06,42.37,12.06,67.84-11.76,45.8-16.17,50.94-35,17.69-60.74,17.69S443.11,774,443.11,774s-7.26,3.25-21.12,1.47c-33.43-4.28-39.43-34-39.43-34a121.66,121.66,0,0,1-17.11,1.59,121.63,121.63,0,0,1-17.1-1.59s-6,29.76-39.43,34C295.05,777.28,287.8,774,287.8,774s-17.45,7.53-43.17,7.53S188.3,769,183.89,763.87s-16.16-25.47-16.16-50.94,12.06-67.84,12.06-67.84-5.2-4.16-5.2-17.63,26.69-59.33,26.69-59.33-6.06-2.58-6.06-12.13c0-19.1,30.86-61.9,30.86-61.9S220,493,220,484.73c0-15.24,28.83-42.92,28.83-42.92l-4.46-8.32c-30.37-11.09-52.57-31.21-66.13-60.86,0,0-1.1,8.32-7.59,8.32-11,0-19.1-28-19.1-41s5.14-31.84,5.14-31.84c-25.57-26-30.29-66.71-15.12-121.47-16.53,7-27.64,19.8-35.33,36.25,0,0-11.27,59.51-39.43,59.51C38.91,282.38,0,245.61,0,205.71,0,106.78,151.69,20.2,189,20.2s57.77,20.21,57.77,20.21S274.75,0,365.45,0,484.19,40.41,484.19,40.41,504.69,20.2,542,20.2,730.91,106.78,730.91,205.71Z"/><path class="cls-4" d="M540.45,646.56c0,7.53,10.67,44.63,10.67,61.53s-5.89,40-14,47.76L537,756c-8.24,7.64-36.17,13.28-57.13,13.28-2.25,0-4.43-.08-6.52-.22-17.48-1.16-29.28-6.92-33.88-12.4-5.14-6.11-12.25-13.35-11.88-33.92s4.17-28.53,1.47-28.53c-1.18,0-5.53,4-7.84,9.67-3,7.43-3.92,17-3.92,17s-21.35,9.67-51.88,9.67-51.87-9.67-51.87-9.67-.92-9.6-3.92-17c-2.31-5.69-6.67-9.67-7.84-9.67-2.7,0,1.1,8,1.47,28.53s-6.74,27.81-11.89,33.92c-4.59,5.48-16.4,11.24-33.87,12.4-2.09.14-4.28.22-6.53.22-21,0-48.88-5.64-57.12-13.28a1.59,1.59,0,0,0-.13-.13c-8.08-7.71-14-30.86-14-47.76s10.66-54,10.66-61.53-4.23-3.67-4.23-14.7c0-19.46,27.12-57.67,27.12-64.11s-5.69-6.79-5.87-10.16,1.4-10,9.24-26.63,21.86-30.55,21.86-37.53-8-5.33-8-9.19c0-2.06,1.4-5.18,3.51-8.74A158.39,158.39,0,0,1,245.89,459c4.53-5.63,8.29-9.87,8.29-9.87,22.56,30.45,56.78,41.88,95.76,45.54,0,0-20.44,11.89-20.44,32.82s19.09,34.35,35.95,34.35,36-13.41,36-34.35S381,494.71,381,494.71c39-3.66,73.21-15.09,95.77-45.54,0,0,3.76,4.24,8.28,9.87a156.92,156.92,0,0,1,11.84,16.46c2.12,3.56,3.51,6.68,3.51,8.74,0,3.86-8,2.21-8,9.19s14,20.88,21.85,37.53,9.43,23.27,9.25,26.63-5.88,3.74-5.88,10.16,27.12,44.65,27.12,64.11C544.68,642.89,540.45,639,540.45,646.56ZM538.08,33.18c-9.8,0-18.88,2.71-26.71,6.18-14.22,6.34-24.29,15.25-26.82,15.25-.48,0-1.34-.63-2.66-1.71l0,0c-9.29-7.73-40.7-38.66-116.42-38.66S258.33,45.14,249,52.87l0,0c-1.31,1.08-2.18,1.71-2.66,1.71-2.53,0-12.59-8.91-26.81-15.25-7.83-3.47-16.92-6.18-26.71-6.18-54,0-180.38,98.94-180.38,172.91,0,10,3.3,19.82,8.35,28.7,9.29,16.38,24.57,29.49,36.31,33.94a22,22,0,0,0,7.7,1.65c16.89,0,24.61-30.49,28.65-54.37S112,101,190.63,94.78c8,.15,14.54.28,19.46.87,7.45.89,11.28,2.86,11.28,7.58,0,1.89-11.17,5-25.26,17.54-14.28,12.7-31.58,35.11-43.32,75.77-19.11,66.13,9.56,99.06,9.56,99.06s21.54-44.08,62.69-60.24c26.59-10.46,48.79-10.16,61.15-6.12h0c6.77,2.2,10.6,5.52,10.6,8.81,0,3.73-5.21,2.32-14.76,1.31-14.23-1.48-38.11-2.08-68.75,16.69-27,16.52-44.23,47.51-47.82,71.64a62.47,62.47,0,0,0-.31,16.12,64.12,64.12,0,0,0,1.39,8.17,53.78,53.78,0,0,0,4.85,13.18c2.76-4.5,5.36-9.16,11.32-10.42,0,0,15.87,86.34,182.73,99.08,166.87-12.74,182.73-99.08,182.73-99.08,6,1.26,8.56,5.92,11.33,10.42A53.55,53.55,0,0,0,564.35,352a64.73,64.73,0,0,0,1.09-24.29c-3.59-24.13-20.85-55.12-47.82-71.64-30.64-18.77-54.53-18.17-68.76-16.69-9.54,1-14.75,2.42-14.75-1.31,0-3.29,3.83-6.61,10.59-8.81h0c12.37-4,34.56-4.34,61.16,6.12,41.14,16.16,62.69,60.24,62.69,60.24s28.66-32.93,9.55-99.06c-11.73-40.66-29-63.07-43.31-75.77-14.09-12.54-25.26-15.65-25.26-17.54,0-4.72,3.83-6.69,11.28-7.58,4.91-.59,11.42-.72,19.45-.87C618.89,101,633.41,192.13,637.44,216s11.76,54.37,28.65,54.37a22.08,22.08,0,0,0,7.71-1.65c11.73-4.45,27-17.56,36.31-33.94,5-8.88,8.34-18.74,8.34-28.7C718.45,132.12,592.08,33.18,538.08,33.18Z"/><path class="cls-2" d="M190.63,94.78C112,101,97.5,192.13,93.46,216S81.7,270.38,64.81,270.38a22,22,0,0,1-7.7-1.65c-19.31-76.86,56.74-196.36,153-173.09h0C205.17,95.06,198.67,94.93,190.63,94.78ZM225,235.36c26.59-10.46,48.79-10.16,61.15-6.12-30.79-13.15-68.6-11.35-122.56,25-6.52-31,.51-72.53,32.48-133.45-14.28,12.7-31.58,35.11-43.32,75.77-19.11,66.13,9.56,99.06,9.56,99.06S183.89,251.52,225,235.36Zm74.51,530.5c18.25.44,32.47-5.39,37.1-26.09a91.36,91.36,0,0,1-22.4-7.62C311.13,746.38,307.23,759.29,299.55,765.86Zm24.06-570-4.4-7.35-17.45-6.8s-12.86-.73-28.11,0-20.75,20.75-20.75,20.75,3.67-3.67,29.38-8.08S323.61,195.81,323.61,195.81ZM363.66,298.3v17.88l-40.91-10.29s8.5,22.53,42.7,22.53,42.7-22.53,42.7-22.53l-40.9,10.29V298.3c13.11-8.56,24.63-23.93,35-44.08l-36.82,12-36.81-12C339,274.37,350.55,289.74,363.66,298.3Zm85-104c25.72,4.41,29.39,8.08,29.39,8.08s-5.51-20-20.76-20.75-28.1,0-28.1,0l-17.46,6.8-4.4,7.35S422.91,189.93,448.62,194.33Zm72.2-98.69h0c4.91-.59,11.42-.72,19.45-.87C618.89,101,633.41,192.13,637.44,216s11.76,54.37,28.65,54.37a22.08,22.08,0,0,0,7.71-1.65C693.1,191.87,617.05,72.37,520.82,95.64Zm-5.16,286.41c-34.33,28.25-90.79,53.64-150.21,53.64S249.57,410.3,215.24,382.05c-30.37-25-33.3-53.63-33.3-53.63A90.61,90.61,0,0,0,166.55,352a53.78,53.78,0,0,0,4.85,13.18c2.76-4.5,5.36-9.16,11.32-10.42,0,0,15.87,86.34,182.73,99.08,166.87-12.74,182.73-99.08,182.73-99.08,6,1.26,8.56,5.92,11.33,10.42A53.55,53.55,0,0,0,564.35,352,90.43,90.43,0,0,0,549,328.42S546,357.08,515.66,382.05Zm-99,350.1a91.08,91.08,0,0,1-22.4,7.62c4.63,20.7,18.85,26.53,37.1,26.09C423.67,759.29,419.78,746.38,416.65,732.15ZM534.8,120.77c32,60.92,39,102.44,32.48,133.45-54-36.33-91.78-38.13-122.57-25,12.37-4,34.56-4.34,61.16,6.12,41.14,16.16,62.69,60.24,62.69,60.24s28.66-32.93,9.55-99.06C566.38,155.88,549.07,133.47,534.8,120.77ZM381,494.71s20.45,11.89,20.45,32.82-19.1,34.35-36,34.35-35.95-13.41-35.95-34.35,20.44-32.82,20.44-32.82c-39-3.66-73.2-15.09-95.76-45.54,0,0-3.76,4.24-8.29,9.87,22.48,25.8,47.22,45.51,74.91,57.23,0,0-2.78,50.57,44.65,50.57s44.66-50.57,44.66-50.57C437.8,504.55,462.53,484.84,485,459c-4.52-5.63-8.28-9.87-8.28-9.87C454.17,479.62,420,491.05,381,494.71Zm73.22,151.62c-13.59,13.18-20.61,29-24.48,46,0,0-30.61,16.65-64.25,16.65s-64.24-16.65-64.24-16.65c-3.87-17.05-10.89-32.84-24.48-46,.33.79,14.09,33.42,6.1,73.34C278,744,266.15,760.12,257.53,769c17.47-1.16,29.28-6.92,33.87-12.4,5.15-6.11,12.26-13.35,11.89-33.92s-4.17-28.53-1.47-28.53c1.17,0,5.53,4,7.84,9.67,3,7.43,3.92,17,3.92,17s21.35,9.67,51.87,9.67,51.88-9.67,51.88-9.67.91-9.6,3.92-17c2.31-5.69,6.66-9.67,7.84-9.67,2.7,0-1.11,8-1.47,28.53s6.74,27.81,11.88,33.92c4.6,5.48,16.4,11.24,33.88,12.4-8.62-8.92-20.44-25-25.31-49.37C440.08,679.75,453.85,647.12,454.18,646.33Z"/><path class="cls-5" d="M146.22,173.76c-11.49.12-22.51,6.69-33.29,16.72,7.27-41.83,26.69-75.3,81.49-84.43C171.25,123.4,156.51,147,146.22,173.76Zm438.46,0c11.49.12,22.52,6.69,33.29,16.72-7.26-41.83-26.68-75.3-81.49-84.43C559.66,123.4,574.4,147,584.68,173.76Z"/><path class="cls-6" d="M464.9,444.14s-31.08,39.68-99.45,39.68S266,444.14,266,444.14s32.63,19.47,99.45,19.47S464.9,444.14,464.9,444.14Z"/><path class="cls-7" d="M365.49,554.35h-.07a27.65,27.65,0,0,1-.05-55.29h.16a27.65,27.65,0,0,1,0,55.29Z"/><path class="cls-8" d="M282,239.36c-16.11,3.72-59.83,15.81-85.53,42.4-18.8,19.46-27.44,44.62-31.35,62.05a62.47,62.47,0,0,1,.31-16.12c3.59-24.13,20.84-55.12,47.82-71.64C243.93,237.28,267.81,237.88,282,239.36Zm-48,236.14c-2.11,3.56-3.51,6.68-3.51,8.74,0,3.86,8,2.21,8,9.19s-14,20.88-21.86,37.53-9.42,23.27-9.24,26.63,5.87,3.74,5.87,10.16-27.12,44.65-27.12,64.11c0,11,4.23,7.16,4.23,14.7s-10.66,44.63-10.66,61.53,5.88,40,14,47.76a1.59,1.59,0,0,1,.13.13c-3.44-11.19-6.74-26.23-5.27-39.81,2.78-25.74,11.48-60.42,13.68-71.54s-6.06-14.42-6.06-14.42,2.48-7.71,7.63-19.47,22-31.23,22-42.24S217.26,554,217.26,554s31.59-51.61,31.59-64.29C248.85,479.68,238.43,476.43,234.05,475.5ZM192.83,33.18c-54,0-180.38,98.94-180.38,172.91,0,10,3.3,19.82,8.35,28.7-2.46-12.07-2.67-29.36,6.72-49.64C45.88,145.47,117.77,76.66,159.4,54.61a132.13,132.13,0,0,1,60.14-15.25C211.71,35.89,202.62,33.18,192.83,33.18Zm90,133c-26.32,0-36.11,29.88-36.11,29.88s27.54-17.64,37.35-18,37.83,11.88,37.83,11.88S314.43,166.17,282.83,166.17Zm82.62-152c-75.71,0-107.12,30.93-116.41,38.66,9.93-6,47.6-25.69,116.41-25.69S471.94,46.85,481.87,52.87C472.58,45.14,441.17,14.21,365.45,14.21ZM544.68,631.86c0-19.46-27.12-57.67-27.12-64.11s5.69-6.79,5.88-10.16-1.41-10-9.25-26.63-21.85-30.55-21.85-37.53,8-5.33,8-9.19c0-2.06-1.39-5.18-3.51-8.74-4.37.93-14.8,4.18-14.8,14.19,0,12.68,31.59,64.29,31.59,64.29S505,557.47,505,568.5s16.9,30.49,22,42.24,7.62,19.47,7.62,19.47-8.26,3.31-6.06,14.42,10.91,45.8,13.68,71.54c1.48,13.58-1.82,28.62-5.26,39.81l.12-.13c8.08-7.71,14-30.86,14-47.76s-10.67-54-10.67-61.53S544.68,642.89,544.68,631.86ZM517.62,256.05c-30.64-18.77-54.53-18.17-68.76-16.69,16.12,3.72,59.83,15.81,85.54,42.4,18.8,19.46,27.44,44.62,31.35,62.05a62.92,62.92,0,0,0-.31-16.12C561.85,303.56,544.59,272.57,517.62,256.05Zm-69.55-89.88c-31.6,0-39.06,23.76-39.06,23.76s28-12.25,37.83-11.88,37.35,18,37.35,18S474.39,166.17,448.07,166.17Zm270.38,39.92c0-74-126.37-172.91-180.37-172.91-9.8,0-18.88,2.71-26.71,6.18a132.16,132.16,0,0,1,60.14,15.25c41.62,22,113.51,90.86,131.88,130.54,9.38,20.28,9.17,37.57,6.72,49.64C715.16,225.91,718.45,216.05,718.45,206.09Z"/><path class="cls-1" d="M288.62,183.22c-26.72,0-31.19,21.83-36.21,21.83s-9.55-4.35-6.8-10.1,14.55-21.31,40.58-21.31,42.69,20,39.44,23.82C322.56,201.11,311,183.22,288.62,183.22ZM485.29,195c-2.75-5.76-14.54-21.31-40.58-21.31s-42.68,20-39.44,23.82c3.08,3.65,14.6-14.24,37-14.24,26.73,0,31.2,21.83,36.22,21.83S488.05,200.7,485.29,195Zm-67,88.29c-7.35,0-7,10.65-20.94,19.83a43.35,43.35,0,0,1-27.73,7.17l.55-35.27s34.68-10.47,34.68-24.43-13.74-20.2-39.42-20.2S326,236.58,326,250.54,360.72,275,360.72,275l.55,35.27a43.38,43.38,0,0,1-27.74-7.17c-14-9.18-13.59-19.83-20.94-19.83s-.85,38.57,52.86,38.57S425.66,283.24,418.31,283.24Z"/><path class="cls-9" d="M372,516.08h5.09v16.41s.55,3.92-6.49,3.92c-5.15,0-5.7-3.12-5.7-3.12v-3.8h4.41v2.63a1.32,1.32,0,1,0,2.63,0Z"/><path class="cls-9" d="M358.68,516.08h5.08v16.41s.55,3.92-6.49,3.92c-5.14,0-5.7-3.12-5.7-3.12v-3.8H356v2.63a1.32,1.32,0,1,0,2.64,0Z"/></g></g></svg>